<svg width="42" height="41" viewBox="0 0 42 41" fill="none" xmlns="http://www.w3.org/2000/svg">
<path d="M35.2829 1H6.8838C3.63944 1 1 3.60307 1 6.80273V34.8106C1 38.0102 3.63944 40.6133 6.8838 40.6133H35.2829C38.5273 40.6133 41.1667 38.0102 41.1667 34.8106V6.80273C41.1667 3.60307 38.5273 1 35.2829 1ZM38.8132 34.8106C38.8132 36.7303 37.2295 38.2922 35.2829 38.2922H6.8838C4.93724 38.2922 3.35352 36.7303 3.35352 34.8106V6.80273C3.35352 4.88299 4.93724 3.32109 6.8838 3.32109H35.2829C37.2295 3.32109 38.8132 4.88299 38.8132 6.80273V34.8106Z" fill="#070707" stroke="#070707" stroke-width="0.5"/>
<mask id="path-2-inside-1_169_11" fill="white">
<path d="M32.1279 29.7139C30.6914 29.7139 29.265 29.7139 27.8164 29.7139C27.8164 29.6454 27.8164 29.5814 27.8164 29.5175C27.8164 27.2089 27.8161 24.9004 27.8167 22.5922C27.8167 22.1009 27.7799 21.6156 27.6551 21.1364C27.1397 19.1601 24.9138 19.2756 24.0284 20.2122C23.5833 20.6829 23.2926 21.2149 23.2803 21.8723C23.2775 22.0288 23.2683 22.1855 23.2683 22.3419C23.2674 24.731 23.2677 27.1204 23.2677 29.5096C23.2677 29.5741 23.2677 29.6387 23.2677 29.7127C21.8253 29.7127 20.3992 29.7127 18.9639 29.7127C18.9639 25.3069 18.9639 20.9057 18.9639 16.4963C20.3967 16.4963 21.8228 16.4963 23.2655 16.4963C23.2655 17.0932 23.2655 17.6812 23.2655 18.2692C23.2769 18.2741 23.2883 18.2793 23.2999 18.2841C23.3307 18.2429 23.362 18.2023 23.3925 18.1607C23.8237 17.5685 24.3191 17.0435 24.9775 16.6885C25.7126 16.2917 26.5068 16.1587 27.3333 16.1823C28.2283 16.2081 29.0775 16.4072 29.8428 16.8834C30.8238 17.4939 31.4216 18.3872 31.7717 19.4587C32.0446 20.2937 32.1341 21.1552 32.135 22.0275C32.1371 24.5379 32.1359 27.0486 32.1356 29.559C32.1356 29.6081 32.131 29.6572 32.1279 29.7139Z"/>
</mask>
<path d="M32.1279 29.7139C30.6914 29.7139 29.265 29.7139 27.8164 29.7139C27.8164 29.6454 27.8164 29.5814 27.8164 29.5175C27.8164 27.2089 27.8161 24.9004 27.8167 22.5922C27.8167 22.1009 27.7799 21.6156 27.6551 21.1364C27.1397 19.1601 24.9138 19.2756 24.0284 20.2122C23.5833 20.6829 23.2926 21.2149 23.2803 21.8723C23.2775 22.0288 23.2683 22.1855 23.2683 22.3419C23.2674 24.731 23.2677 27.1204 23.2677 29.5096C23.2677 29.5741 23.2677 29.6387 23.2677 29.7127C21.8253 29.7127 20.3992 29.7127 18.9639 29.7127C18.9639 25.3069 18.9639 20.9057 18.9639 16.4963C20.3967 16.4963 21.8228 16.4963 23.2655 16.4963C23.2655 17.0932 23.2655 17.6812 23.2655 18.2692C23.2769 18.2741 23.2883 18.2793 23.2999 18.2841C23.3307 18.2429 23.362 18.2023 23.3925 18.1607C23.8237 17.5685 24.3191 17.0435 24.9775 16.6885C25.7126 16.2917 26.5068 16.1587 27.3333 16.1823C28.2283 16.2081 29.0775 16.4072 29.8428 16.8834C30.8238 17.4939 31.4216 18.3872 31.7717 19.4587C32.0446 20.2937 32.1341 21.1552 32.135 22.0275C32.1371 24.5379 32.1359 27.0486 32.1356 29.559C32.1356 29.6081 32.131 29.6572 32.1279 29.7139Z" fill="#070707"/>

<path d="M16.3189 29.7054H16.3174H16.309H16.3006H16.2922H16.2838H16.2755H16.2671H16.2587H16.2503H16.2419H16.2335H16.2251H16.2168H16.2084H16.2H16.1916H16.1832H16.1748H16.1665H16.1581H16.1497H16.1413H16.1329H16.1246H16.1162H16.1078H16.0994H16.091H16.0827H16.0743H16.0659H16.0575H16.0491H16.0408H16.0324H16.024H16.0156H16.0073H15.9989H15.9905H15.9821H15.9737H15.9654H15.957H15.9486H15.9402H15.9319H15.9235H15.9151H15.9067H15.8984H15.89H15.8816H15.8733H15.8649H15.8565H15.8481H15.8398H15.8314H15.823H15.8146H15.8063H15.7979H15.7895H15.7812H15.7728H15.7644H15.7561H15.7477H15.7393H15.731H15.7226H15.7142H15.7058H15.6975H15.6891H15.6807H15.6724H15.664H15.6556H15.6473H15.6389H15.6305H15.6222H15.6138H15.6054H15.5971H15.5887H15.5803H15.572H15.5636H15.5553H15.5469H15.5385H15.5302H15.5218H15.5134H15.5051H15.4967H15.4883H15.48H15.4716H15.4633H15.4549H15.4465H15.4382H15.4298H15.4215H15.4131H15.4047H15.3964H15.388H15.3796H15.3713H15.3629H15.3546H15.3462H15.3379H15.3295H15.3211H15.3128H15.3044H15.2961H15.2877H15.2793H15.271H15.2626H15.2543H15.2459H15.2376H15.2292H15.2208H15.2125H15.2041H15.1958H15.1874H15.1791H15.1707H15.1623H15.154H15.1456H15.1373H15.1289H15.1206H15.1122H15.1039H15.0955H15.0871H15.0788H15.0704H15.0621H15.0537H15.0454H15.037H15.0287H15.0203H15.012H15.0036H14.9952H14.9869H14.9785H14.9702H14.9618H14.9535H14.9451H14.9368H14.9284H14.9201H14.9117H14.9034H14.895H14.8867H14.8783H14.87H14.8616H14.8533H14.8449H14.8366H14.8282H14.8199H14.8115H14.8031H14.7948H14.7864H14.7781H14.7697H14.7614H14.753H14.7447H14.7363H14.728H14.7196H14.7113H14.7029H14.6946H14.6862H14.6779H14.6695H14.6612H14.6528H14.6445H14.6361H14.6278H14.6195H14.6111H14.6028H14.5944H14.5861H14.5777H14.5694H14.561H14.5527H14.5443H14.536H14.5276H14.5193H14.5109H14.5026H14.4942H14.4859H14.4775H14.4692H14.4608H14.4525H14.4441H14.4358H14.4274H14.4191H14.4107H14.4024H14.394H14.3857H14.3773H14.369H14.3607H14.3523H14.344H14.3356H14.3273H14.3189H14.3106H14.3022H14.2939H14.2855H14.2772H14.2688H14.2605H14.2521H14.2438H14.2354H14.2271H14.2187H14.2104H14.202H14.1937H14.1854H14.177H14.1687H14.1603H14.152H14.1436H14.1353H14.1269H14.1186H14.1102H14.1019H14.0935H14.0852H14.0768H14.0685H14.0601H14.0518H14.0434H14.0351H14.0268H14.0184H14.0101H14.0017H13.9934H13.985H13.9767H13.9683H13.96H13.9516H13.9433H13.9349H13.9266H13.9182H13.9099H13.9015H13.8932H13.8848H13.8765H13.8681H13.8598H13.8514H13.8431H13.8348H13.8264H13.8181H13.8097H13.8014H13.793H13.7847H13.7763H13.768H13.7596H13.7513H13.7429H13.7346H13.7262H13.7179H13.7095H13.7012H13.6928H13.6845H13.6761H13.6678H13.6594H13.6511H13.6427H13.6344H13.626H13.6177H13.6093H13.601H13.5926H13.5843H13.5759H13.5676H13.5592H13.5509H13.5425H13.5342H13.5258H13.5175H13.5091H13.5008H13.4924H13.4841H13.4757H13.4674H13.459H13.4507H13.4423H13.434H13.4256H13.4172H13.4089H13.4005H13.3922H13.3838H13.3755H13.3671H13.3588H13.3504H13.3421H13.3337H13.3254H13.317H13.3087H13.3003H13.2919H13.2836H13.2752H13.2669H13.2585H13.2502H13.2418H13.2335H13.2251H13.2168H13.2084H13.2H13.1917H13.1833H13.175H13.1666H13.1583H13.1499H13.1416H13.1332H13.1248H13.1165H13.1081H13.0998H13.0914H13.0831H13.0747H13.0663H13.058H13.0496H13.0413H13.0329H13.0245H13.0162H13.0078H12.9995H12.9911H12.9827H12.9744H12.966H12.9577H12.9493H12.9409H12.9326H12.9242H12.9159H12.9075H12.8991H12.8908H12.8824H12.8741H12.8657H12.8573H12.849H12.8406H12.8322H12.8239H12.8155H12.8072H12.7988H12.7904H12.7821H12.7737H12.7653H12.757H12.7486H12.7402H12.7319H12.7235H12.7151H12.7068H12.6984H12.69H12.6817H12.6733H12.6649H12.6566H12.6482H12.6398H12.6315H12.6231H12.6147H12.6064H12.598H12.5896H12.5813H12.5729H12.5645H12.5561H12.5478H12.5394H12.531H12.5227H12.5143H12.5059H12.4975H12.4892H12.4808H12.4724H12.4641H12.4557H12.4473H12.4389H12.4306H12.4222H12.4138H12.4054H12.3971H12.3887H12.3803H12.3719H12.3636H12.3552H12.3468H12.3384H12.3301H12.3217H12.3133H12.3049H12.2966H12.2882H12.2798H12.2714H12.263H12.2547H12.2463H12.2379H12.2295H12.2211H12.2128H12.2044H12.196H12.1876H12.1792H12.1708H12.1625H12.1541H12.1457H12.1373H12.1289H12.1205H12.1122H12.1038H12.0954H12.087H12.0786H12.0702H12.0688V29.6949V29.669V29.6432V29.6174V29.5916V29.5657V29.5399V29.5141V29.4882V29.4624V29.4366V29.4108V29.3849V29.3591V29.3333V29.3074V29.2816V29.2558V29.23V29.2041V29.1783V29.1525V29.1266V29.1008V29.075V29.0492V29.0233V28.9975V28.9717V28.9458V28.92V28.8942V28.8684V28.8425V28.8167V28.7909V28.7651V28.7392V28.7134V28.6876V28.6617V28.6359V28.6101V28.5843V28.5584V28.5326V28.5068V28.481V28.4551V28.4293V28.4035V28.3776V28.3518V28.326V28.3002V28.2743V28.2485V28.2227V28.1969V28.171V28.1452V28.1194V28.0935V28.0677V28.0419V28.0161V27.9902V27.9644V27.9386V27.9128V27.8869V27.8611V27.8353V27.8095V27.7836V27.7578V27.732V27.7062V27.6803V27.6545V27.6287V27.6028V27.577V27.5512V27.5254V27.4995V27.4737V27.4479V27.4221V27.3962V27.3704V27.3446V27.3188V27.2929V27.2671V27.2413V27.2155V27.1896V27.1638V27.138V27.1121V27.0863V27.0605V27.0347V27.0088V26.983V26.9572V26.9314V26.9055V26.8797V26.8539V26.8281V26.8022V26.7764V26.7506V26.7248V26.6989V26.6731V26.6473V26.6214V26.5956V26.5698V26.544V26.5181V26.4923V26.4665V26.4407V26.4148V26.389V26.3632V26.3374V26.3115V26.2857V26.2599V26.2341V26.2082V26.1824V26.1566V26.1307V26.1049V26.0791V26.0533V26.0274V26.0016V25.9758V25.95V25.9241V25.8983V25.8725V25.8467V25.8208V25.795V25.7692V25.7434V25.7175V25.6917V25.6659V25.64V25.6142V25.5884V25.5626V25.5367V25.5109V25.4851V25.4593V25.4334V25.4076V25.3818V25.3559V25.3301V25.3043V25.2785V25.2526V25.2268V25.201V25.1752V25.1493V25.1235V25.0977V25.0718V25.046V25.0202V24.9944V24.9685V24.9427V24.9169V24.8911V24.8652V24.8394V24.8136V24.7877V24.7619V24.7361V24.7103V24.6844V24.6586V24.6328V24.607V24.5811V24.5553V24.5295V24.5036V24.4778V24.452V24.4262V24.4003V24.3745V24.3487V24.3228V24.297V24.2712V24.2454V24.2195V24.1937V24.1679V24.142V24.1162V24.0904V24.0646V24.0387V24.0129V23.9871V23.9612V23.9354V23.9096V23.8837V23.8579V23.8321V23.8063V23.7804V23.7546V23.7288V23.7029V23.6771V23.6513V23.6254V23.5996V23.5738V23.548V23.5221V23.4963V23.4705V23.4446V23.4188V23.393V23.3671V23.3413V23.3155V23.2897V23.2638V23.238V23.2122V23.1863V23.1605V23.1347V23.1088V23.083V23.0572V23.0313V23.0055V22.9797V22.9538V22.928V22.9022V22.8763V22.8505V22.8247V22.7988V22.773V22.7472V22.7214V22.6955V22.6697V22.6439V22.618V22.5922V22.5664V22.5405V22.5147V22.4889V22.463V22.4372V22.4114V22.3855V22.3597V22.3339V22.308V22.2822V22.2564V22.2305V22.2047V22.1788V22.153V22.1272V22.1013V22.0755V22.0497V22.0238V21.998V21.9722V21.9463V21.9205V21.8947V21.8688V21.843V21.8172V21.7913V21.7655V21.7396V21.7138V21.688V21.6621V21.6363V21.6105V21.5846V21.5588V21.533V21.5071V21.4813V21.4554V21.4296V21.4038V21.3779V21.3521V21.3263V21.3004V21.2746V21.2487V21.2229V21.1971V21.1712V21.1454V21.1196V21.0937V21.0679V21.042V21.0162V20.9904V20.9645V20.9387V20.9128V20.887V20.8612V20.8353V20.8095V20.7836V20.7578V20.732V20.7061V20.6803V20.6544V20.6286V20.6028V20.5769V20.5511V20.5252V20.4994V20.4736V20.4477V20.4219V20.396V20.3702V20.3443V20.3185V20.2927V20.2668V20.241V20.2151V20.1893V20.1634V20.1376V20.1118V20.0859V20.0601V20.0342V20.0084V19.9825V19.9567V19.9309V19.905V19.8792V19.8533V19.8275V19.8016V19.7758V19.7499V19.7241V19.6983V19.6724V19.6466V19.6207V19.5949V19.569V19.5432V19.5173V19.4915V19.4656V19.4398V19.4139V19.3881V19.3622V19.3364V19.3106V19.2847V19.2589V19.233V19.2072V19.1813V19.1555V19.1296V19.1038V19.0779V19.0521V19.0262V19.0004V18.9745V18.9487V18.9228V18.897V18.8711V18.8453V18.8194V18.7936V18.7677V18.7419V18.716V18.6902V18.6643V18.6385V18.6126V18.5868V18.5609V18.5351V18.5092V18.4834V18.4575V18.4316V18.4058V18.3799V18.3541V18.3282V18.3024V18.2765V18.2507V18.2248V18.199V18.1731V18.1473V18.1214V18.0955V18.0697V18.0438V18.018V17.9921V17.9663V17.9404V17.9146V17.8887V17.8628V17.837V17.8111V17.7853V17.7594V17.7336V17.7077V17.6818V17.656V17.6301V17.6043V17.5784V17.5526V17.5267V17.5008V17.475V17.4491V17.4233V17.3974V17.3715V17.3457V17.3198V17.294V17.2681V17.2422V17.2164V17.1905V17.1647V17.1388V17.1129V17.0871V17.0612V17.0353V17.0095V16.9836V16.9578V16.9319V16.906V16.8802V16.8543V16.8284V16.8026V16.7767V16.7508V16.725V16.6991V16.6732V16.6474V16.6215V16.5957V16.5698V16.5439V16.5181V16.5075H12.0701H12.0785H12.0868H12.0952H12.1035H12.1118H12.1202H12.1285H12.1369H12.1452H12.1535H12.1619H12.1702H12.1786H12.1869H12.1952H12.2036H12.2119H12.2203H12.2286H12.2369H12.2453H12.2536H12.262H12.2703H12.2786H12.287H12.2953H12.3036H12.312H12.3203H12.3287H12.337H12.3453H12.3537H12.362H12.3704H12.3787H12.387H12.3954H12.4037H12.4121H12.4204H12.4287H12.4371H12.4454H12.4537H12.4621H12.4704H12.4788H12.4871H12.4954H12.5038H12.5121H12.5205H12.5288H12.5371H12.5455H12.5538H12.5622H12.5705H12.5788H12.5872H12.5955H12.6038H12.6122H12.6205H12.6289H12.6372H12.6455H12.6539H12.6622H12.6706H12.6789H12.6872H12.6956H12.7039H12.7123H12.7206H12.7289H12.7373H12.7456H12.7539H12.7623H12.7706H12.779H12.7873H12.7956H12.804H12.8123H12.8207H12.829H12.8373H12.8457H12.854H12.8624H12.8707H12.879H12.8874H12.8957H12.9041H12.9124H12.9207H12.9291H12.9374H12.9458H12.9541H12.9624H12.9708H12.9791H12.9875H12.9958H13.0041H13.0125H13.0208H13.0292H13.0375H13.0458H13.0542H13.0625H13.0709H13.0792H13.0875H13.0959H13.1042H13.1126H13.1209H13.1292H13.1376H13.1459H13.1543H13.1626H13.171H13.1793H13.1876H13.196H13.2043H13.2127H13.221H13.2293H13.2377H13.246H13.2544H13.2627H13.271H13.2794H13.2877H13.2961H13.3044H13.3128H13.3211H13.3294H13.3378H13.3461H13.3545H13.3628H13.3712H13.3795H13.3878H13.3962H13.4045H13.4129H13.4212H13.4296H13.4379H13.4462H13.4546H13.4629H13.4713H13.4796H13.488H13.4963H13.5047H13.513H13.5213H13.5297H13.538H13.5464H13.5547H13.5631H13.5714H13.5798H13.5881H13.5964H13.6048H13.6131H13.6215H13.6298H13.6382H13.6465H13.6549H13.6632H13.6715H13.6799H13.6882H13.6966H13.7049H13.7133H13.7216H13.73H13.7383H13.7467H13.755H13.7634H13.7717H13.7801H13.7884H13.7967H13.8051H13.8134H13.8218H13.8301H13.8385H13.8468H13.8552H13.8635H13.8719H13.8802H13.8886H13.8969H13.9053H13.9136H13.922H13.9303H13.9387H13.947H13.9554H13.9637H13.9721H13.9804H13.9888H13.9971H14.0055H14.0138H14.0222H14.0305H14.0389H14.0472H14.0556H14.0639H14.0723H14.0806H14.089H14.0973H14.1057H14.114H14.1224H14.1307H14.1391H14.1474H14.1558H14.1641H14.1725H14.1809H14.1892H14.1976H14.2059H14.2143H14.2226H14.231H14.2393H14.2477H14.256H14.2644H14.2727H14.2811H14.2895H14.2978H14.3062H14.3145H14.3229H14.3312H14.3396H14.3479H14.3563H14.3647H14.373H14.3814H14.3897H14.3981H14.4064H14.4148H14.4232H14.4315H14.4399H14.4482H14.4566H14.4649H14.4733H14.4817H14.49H14.4984H14.5067H14.5151H14.5235H14.5318H14.5402H14.5485H14.5569H14.5653H14.5736H14.582H14.5903H14.5987H14.6071H14.6154H14.6238H14.6321H14.6405H14.6489H14.6572H14.6656H14.674H14.6823H14.6907H14.699H14.7074H14.7158H14.7241H14.7325H14.7409H14.7492H14.7576H14.766H14.7743H14.7827H14.791H14.7994H14.8078H14.8161H14.8245H14.8329H14.8412H14.8496H14.858H14.8663H14.8747H14.8831H14.8914H14.8998H14.9082H14.9165H14.9249H14.9333H14.9417H14.95H14.9584H14.9668H14.9751H14.9835H14.9919H15.0002H15.0086H15.017H15.0253H15.0337H15.0421H15.0505H15.0588H15.0672H15.0756H15.0839H15.0923H15.1007H15.1091H15.1174H15.1258H15.1342H15.1426H15.1509H15.1593H15.1677H15.1761H15.1844H15.1928H15.2012H15.2096H15.2179H15.2263H15.2347H15.2431H15.2514H15.2598H15.2682H15.2766H15.2849H15.2933H15.3017H15.3101H15.3185H15.3268H15.3352H15.3436H15.352H15.3604H15.3687H15.3771H15.3855H15.3939H15.4023H15.4106H15.419H15.4274H15.4358H15.4442H15.4525H15.4609H15.4693H15.4777H15.4861H15.4945H15.5028H15.5112H15.5196H15.528H15.5364H15.5448H15.5531H15.5615H15.5699H15.5783H15.5867H15.5951H15.6035H15.6119H15.6202H15.6286H15.637H15.6454H15.6538H15.6622H15.6706H15.679H15.6873H15.6957H15.7041H15.7125H15.7209H15.7293H15.7377H15.7461H15.7545H15.7629H15.7713H15.7796H15.788H15.7964H15.8048H15.8132H15.8216H15.83H15.8384H15.8468H15.8552H15.8636H15.872H15.8804H15.8888H15.8972H15.9056H15.914H15.9224H15.9308H15.9392H15.9475H15.9559H15.9643H15.9727H15.9811H15.9895H15.9979H16.0063H16.0147H16.0231H16.0315H16.0399H16.0483H16.0567H16.0651H16.0736H16.082H16.0904H16.0988H16.1072H16.1156H16.124H16.1324H16.1408H16.1492H16.1576H16.166H16.1744H16.1828H16.1912H16.1996H16.208H16.2164H16.2248H16.2332H16.2417H16.2501H16.2585H16.2669H16.2753H16.2837H16.2921H16.3005H16.3089H16.3173H16.3189V16.518V16.5438V16.5696V16.5954V16.6212V16.647V16.6728V16.6986V16.7244V16.7503V16.7761V16.8019V16.8277V16.8535V16.8793V16.9051V16.9309V16.9567V16.9825V17.0083V17.0341V17.0599V17.0857V17.1115V17.1374V17.1632V17.189V17.2148V17.2406V17.2664V17.2922V17.318V17.3438V17.3696V17.3954V17.4212V17.447V17.4728V17.4987V17.5245V17.5503V17.5761V17.6019V17.6277V17.6535V17.6793V17.7051V17.7309V17.7567V17.7825V17.8083V17.8342V17.86V17.8858V17.9116V17.9374V17.9632V17.989V18.0148V18.0406V18.0664V18.0922V18.1181V18.1439V18.1697V18.1955V18.2213V18.2471V18.2729V18.2987V18.3245V18.3503V18.3761V18.402V18.4278V18.4536V18.4794V18.5052V18.531V18.5568V18.5826V18.6084V18.6342V18.6601V18.6859V18.7117V18.7375V18.7633V18.7891V18.8149V18.8407V18.8665V18.8924V18.9182V18.944V18.9698V18.9956V19.0214V19.0472V19.073V19.0988V19.1247V19.1505V19.1763V19.2021V19.2279V19.2537V19.2795V19.3053V19.3312V19.357V19.3828V19.4086V19.4344V19.4602V19.486V19.5118V19.5377V19.5635V19.5893V19.6151V19.6409V19.6667V19.6925V19.7184V19.7442V19.77V19.7958V19.8216V19.8474V19.8732V19.8991V19.9249V19.9507V19.9765V20.0023V20.0281V20.0539V20.0798V20.1056V20.1314V20.1572V20.183V20.2088V20.2346V20.2605V20.2863V20.3121V20.3379V20.3637V20.3895V20.4154V20.4412V20.467V20.4928V20.5186V20.5444V20.5703V20.5961V20.6219V20.6477V20.6735V20.6994V20.7252V20.751V20.7768V20.8026V20.8284V20.8543V20.8801V20.9059V20.9317V20.9575V20.9834V21.0092V21.035V21.0608V21.0866V21.1125V21.1383V21.1641V21.1899V21.2157V21.2416V21.2674V21.2932V21.319V21.3448V21.3707V21.3965V21.4223V21.4481V21.4739V21.4998V21.5256V21.5514V21.5772V21.6031V21.6289V21.6547V21.6805V21.7063V21.7322V21.758V21.7838V21.8096V21.8355V21.8613V21.8871V21.9129V21.9388V21.9646V21.9904V22.0162V22.0421V22.0679V22.0937V22.1195V22.1454V22.1712V22.197V22.2228V22.2487V22.2745V22.3003V22.3261V22.352V22.3778V22.4036V22.4294V22.4553V22.4811V22.5069V22.5327V22.5586V22.5844V22.6102V22.6361V22.6619V22.6877V22.7135V22.7394V22.7652V22.791V22.8169V22.8427V22.8685V22.8943V22.9202V22.946V22.9718V22.9977V23.0235V23.0493V23.0752V23.101V23.1268V23.1527V23.1785V23.2043V23.2301V23.256V23.2818V23.3076V23.3335V23.3593V23.3851V23.411V23.4368V23.4626V23.4885V23.5143V23.5401V23.566V23.5918V23.6176V23.6435V23.6693V23.6951V23.721V23.7468V23.7727V23.7985V23.8243V23.8502V23.876V23.9018V23.9277V23.9535V23.9793V24.0052V24.031V24.0569V24.0827V24.1085V24.1344V24.1602V24.186V24.2119V24.2377V24.2636V24.2894V24.3152V24.3411V24.3669V24.3928V24.4186V24.4444V24.4703V24.4961V24.522V24.5478V24.5736V24.5995V24.6253V24.6512V24.677V24.7029V24.7287V24.7545V24.7804V24.8062V24.8321V24.8579V24.8838V24.9096V24.9354V24.9613V24.9871V25.013V25.0388V25.0647V25.0905V25.1164V25.1422V25.168V25.1939V25.2197V25.2456V25.2714V25.2973V25.3231V25.349V25.3748V25.4007V25.4265V25.4524V25.4782V25.5041V25.5299V25.5558V25.5816V25.6075V25.6333V25.6592V25.685V25.7109V25.7367V25.7626V25.7884V25.8143V25.8401V25.866V25.8918V25.9177V25.9435V25.9694V25.9952V26.0211V26.0469V26.0728V26.0986V26.1245V26.1504V26.1762V26.2021V26.2279V26.2538V26.2796V26.3055V26.3313V26.3572V26.3831V26.4089V26.4348V26.4606V26.4865V26.5123V26.5382V26.5641V26.5899V26.6158V26.6416V26.6675V26.6934V26.7192V26.7451V26.7709V26.7968V26.8227V26.8485V26.8744V26.9002V26.9261V26.952V26.9778V27.0037V27.0295V27.0554V27.0813V27.1071V27.133V27.1589V27.1847V27.2106V27.2365V27.2623V27.2882V27.314V27.3399V27.3658V27.3916V27.4175V27.4434V27.4692V27.4951V27.521V27.5468V27.5727V27.5986V27.6245V27.6503V27.6762V27.7021V27.7279V27.7538V27.7797V27.8055V27.8314V27.8573V27.8832V27.909V27.9349V27.9608V27.9866V28.0125V28.0384V28.0643V28.0901V28.116V28.1419V28.1677V28.1936V28.2195V28.2454V28.2712V28.2971V28.323V28.3489V28.3747V28.4006V28.4265V28.4524V28.4783V28.5041V28.53V28.5559V28.5818V28.6076V28.6335V28.6594V28.6853V28.7112V28.737V28.7629V28.7888V28.8147V28.8406V28.8664V28.8923V28.9182V28.9441V28.97V28.9959V29.0217V29.0476V29.0735V29.0994V29.1253V29.1512V29.177V29.2029V29.2288V29.2547V29.2806V29.3065V29.3324V29.3583V29.3841V29.41V29.4359V29.4618V29.4877V29.5136V29.5395V29.5654V29.5912V29.6171V29.643V29.6689V29.6948V29.7054Z" fill="#070707" stroke="#070707" stroke-width="0.0306072"/>
<path d="M14.3771 9.92937C15.0473 9.92846 15.6187 10.1636 16.023 10.5655C16.4274 10.9673 16.6656 11.5367 16.6678 12.206C16.67 12.8679 16.4305 13.4323 16.0204 13.8313C15.6104 14.2304 15.0288 14.4649 14.3455 14.4652C13.0129 14.4661 12.0636 13.5247 12.0612 12.2007C12.0588 10.8761 13.0216 9.93118 14.3771 9.92937Z" fill="#070707" stroke="#070707" stroke-width="0.0306072"/>
</svg>
